<svg xmlns="http://www.w3.org/2000/svg" viewBox="0 0 279.36 133.49"><defs><style>.cls-1{opacity:0.21;}.cls-2{fill:#a0e2f9;}.cls-3{fill:#1f033c;}.cls-10,.cls-11,.cls-12,.cls-16,.cls-23,.cls-30,.cls-4,.cls-5,.cls-9{fill:none;}.cls-10,.cls-11,.cls-4,.cls-9{stroke:#1f033c;}.cls-10,.cls-11,.cls-4,.cls-5,.cls-9{stroke-linecap:round;stroke-linejoin:round;}.cls-4{stroke-width:1.03px;}.cls-5{stroke:#fff;stroke-width:0.96px;}.cls-6{fill:#cecece;}.cls-7{fill:#aaa19b;}.cls-8{fill:#fff;}.cls-9{stroke-width:0.94px;}.cls-11{stroke-width:0.57px;}.cls-12,.cls-16,.cls-30{stroke:#141414;}.cls-12,.cls-30{stroke-miterlimit:10;}.cls-12{stroke-width:1.08px;}.cls-13{fill:#2c6e9b;}.cls-14,.cls-18{fill:#0e3964;}.cls-14{opacity:0.3;}.cls-14,.cls-17{isolation:isolate;}.cls-15{fill:#fbd766;}.cls-16{stroke-miterlimit:10;stroke-width:1.08px;}.cls-17,.cls-19{fill:#0e394f;}.cls-17{opacity:0.2;}.cls-20{fill:#062538;}.cls-21{fill:#4cf58c;}.cls-22{fill:#19517f;}.cls-24{fill:#062c4c;}.cls-25{fill:#141414;}.cls-26{fill:#4d9ac4;}.cls-27{fill:#f95d5d;}.cls-28{fill:#033156;}.cls-29{fill:#f4f3f2;}.cls-30{stroke-width:0.7px;}</style></defs><g id="Layer_2" data-name="Layer 2"><g id="Layer_1-2" data-name="Layer 1"><g class="cls-1"><path class="cls-2" d="M67.72,30.52a28.52,28.52,0,0,1,30-26.93A27.53,27.53,0,0,1,109.6,6.94,33.49,33.49,0,0,1,131.89.05a33.91,33.91,0,0,1-3.68,67.72A33.42,33.42,0,0,1,106.8,58.5a27.29,27.29,0,0,1-12.16,2,28.5,28.5,0,0,1-26.92-30Z"/></g><g class="cls-1"><path class="cls-2" d="M169.86,73.78A26.17,26.17,0,0,1,197.44,49a25.4,25.4,0,0,1,10.9,3.07,30.83,30.83,0,0,1,20.48-6.33A31.16,31.16,0,0,1,225.44,108a30.72,30.72,0,0,1-19.67-8.51,25.25,25.25,0,0,1-11.17,1.88,26.19,26.19,0,0,1-24.74-27.59Z"/></g><circle class="cls-3" cx="56.04" cy="116.99" r="0.62"/><polyline class="cls-4" points="54.13 114.98 56.57 110.64 55.31 109.13"/><line class="cls-5" x1="37.51" y1="110.94" x2="40.44" y2="109.51"/><path class="cls-6" d="M55.62,105.52C63.31,72.71,51,66.44,51,66.44s-1.17,2.37-2.36,4.3a2.86,2.86,0,0,1-2.25,1.34l-4.25.3a2.9,2.9,0,0,1-2-.65L36,67.49h0a23,23,0,0,0-3,6.45c-1.19,4.1-1.6,10.81-8,17.14a20,20,0,0,0-5.67,17A11.76,11.76,0,0,0,26.26,117a14.1,14.1,0,0,0,7.81,1l6.19-.92c2.9-.43,6.72-.81,9.73-1h.34l1.5.12,3.88,1.15a6.24,6.24,0,0,0,4.7-.39h0c1.55-.78,3.58-1.94,3.68-6.27l-.2-1.35c-.72-2.49-3.72-3.09-5.29-3.35h0a28,28,0,0,0-4.76-.17l-1.59.13a45.78,45.78,0,0,0-12.81,1.75h0c-3.75,1.22-3.95,2.8-8.18,1.2l.07,0,3,.78Z"/><path class="cls-7" d="M33,118.35l-3.33.5c-2.64.39-1.28-.29-3.72-1.38A11.81,11.81,0,0,1,19,108.59a20,20,0,0,1,5.68-17c6.43-6.33,6.84-13,8-17.13a22.4,22.4,0,0,1,3-6.46l4.05,4.25a3,3,0,0,0,2,.64l3.58-.25C34.8,76.59,23.66,92,24.14,103.9,24.44,111.54,27.62,113.68,33,118.35Z"/><path class="cls-8" d="M51.88,99.87c-.48,6.22-3.14,6.91-7.91,6.54-1.49-.12-5.32,2.5-6.47,1.53-2.54-2.11-3.22-5.15-2.88-9.42.48-6.22,4.74-11,9.51-10.59S52.37,93.65,51.88,99.87Z"/><path class="cls-9" d="M36.61,78.32S40,81.7,43,78"/><path class="cls-9" d="M46.34,77.94s3.43,3.37,6.36-.3"/><ellipse class="cls-3" cx="44.7" cy="81.34" rx="1.51" ry="0.82" transform="translate(-3.73 2.16) rotate(-2.66)"/><line class="cls-9" x1="44.7" y1="81.34" x2="44.78" y2="83.06"/><path class="cls-10" d="M48.63,83.44a2.48,2.48,0,0,1-3.86-.28"/><path class="cls-10" d="M40.87,83.8a2.49,2.49,0,0,0,3.82-.64"/><circle class="cls-3" cx="18.98" cy="108.46" r="0.62"/><circle class="cls-3" cx="29.85" cy="107.91" r="0.62"/><line class="cls-11" x1="39.15" y1="81.52" x2="26.91" y2="78.92"/><line class="cls-11" x1="39.23" y1="83.41" x2="25.8" y2="87.41"/><line class="cls-11" x1="32.61" y1="82.73" x2="39.2" y2="82.46"/><line class="cls-11" x1="49.44" y1="81.11" x2="61.45" y2="77.55"/><line class="cls-11" x1="49.52" y1="83" x2="63.22" y2="85.92"/><line class="cls-11" x1="56.06" y1="81.79" x2="49.47" y2="82.06"/><path class="cls-7" d="M34.21,111.37c2.74.2,5.43-1.1,8-1.87a19.34,19.34,0,0,1,8.18-1.08,1.18,1.18,0,0,0,1.39-.79,1.13,1.13,0,0,0-.79-1.38,20.67,20.67,0,0,0-8.48.81c-1.4.4-2.78.86-4.16,1.31a10.88,10.88,0,0,1-4.14.75c-1.44-.11-1.43,2.14,0,2.25Z"/><path class="cls-4" d="M50.94,106.28A44.94,44.94,0,0,0,39.27,108h0c-3.75,1.23-5.2,2.29-8,.88"/><path class="cls-4" d="M63.82,109.79c-1.08-4.28-8.88-3.72-10.15-3.66"/><path class="cls-4" d="M51.69,116.53l3.87,1.15a6.26,6.26,0,0,0,4.71-.39h0c1.55-.79,3.68-1.1,3.78-5.43"/><path class="cls-4" d="M19.64,110.58a11.86,11.86,0,0,0,6.48,6.79,14.1,14.1,0,0,0,7.81,1l6.19-.92c2.9-.43,5.11-.69,8.12-.89"/><path class="cls-4" d="M55.48,106c7.69-32.81-4.64-39.09-4.64-39.09s-1.16,2.37-2.36,4.31a2.89,2.89,0,0,1-2.25,1.34L42,72.8a2.84,2.84,0,0,1-2-.64l-4.06-4.25h0a23,23,0,0,0-3,6.45c-1.19,4.1-2.58,11.1-9,18s-5.18,11.09-5.22,14"/><path class="cls-12" d="M194,122.57h11.33a12.91,12.91,0,0,0,9.15-3.76h0a12.9,12.9,0,0,1,18.26,0l2.42,2.42a12.91,12.91,0,0,0,9.15,3.76h17.52"/><path class="cls-13" d="M274.78,120c-2.61-5-7.3-8.76-13.34-8.76a15.66,15.66,0,0,0-15,11.22,3.49,3.49,0,0,0,2.39,4.31,3.16,3.16,0,0,0,1,.13H269l6.28-.53"/><path class="cls-14" d="M251.34,122.46a3.48,3.48,0,0,0,2.38,4.31,3.2,3.2,0,0,0,1,.13h-4.91a3.5,3.5,0,0,1-3.37-4.44,15.67,15.67,0,0,1,15-11.22,14.6,14.6,0,0,1,2.47.19A15.67,15.67,0,0,0,251.34,122.46Z"/><path class="cls-12" d="M275.33,124.68a13.26,13.26,0,0,0-8.81-12.6,15.67,15.67,0,0,0-19.9,9.76q-.1.28-.18.57a3.5,3.5,0,0,0,2.35,4.35,3.34,3.34,0,0,0,1,.14h23.34a2.21,2.21,0,0,0,2.21-2.21Z"/><path class="cls-15" d="M70.33,92.25l9-2.81h0l5.32,17.15a4.73,4.73,0,0,1-3.12,5.92h0a4.74,4.74,0,0,1-5.93-3.12h0L70.33,92.25Z"/><path class="cls-16" d="M70.33,92.25l9-2.81h0l5.32,17.15a4.73,4.73,0,0,1-3.12,5.92h0a4.74,4.74,0,0,1-5.93-3.12h0L70.33,92.25Z"/><path class="cls-17" d="M220.07,127.84c0,3.12-63.88,5.65-119.45,5.65S0,131,0,127.84s45.05-5.65,100.62-5.65S220.07,124.72,220.07,127.84Z"/><path class="cls-17" d="M279.36,127.84c0,1.27-10.22,2.29-19.12,2.29s-16.1-1-16.1-2.29,7.21-2.29,16.1-2.29S279.36,126.58,279.36,127.84Z"/><path class="cls-18" d="M200.57,26.45H90.05a3.32,3.32,0,0,0-3.27,2.75L74,113.47a3.32,3.32,0,0,0,2.71,3.83,3.43,3.43,0,0,0,.56,0H192a3.32,3.32,0,0,0,3.23-2.69L208.47,36A8.07,8.07,0,0,0,202,26.59,7.94,7.94,0,0,0,200.57,26.45Z"/><path class="cls-12" d="M200.57,26.45H90.05a3.32,3.32,0,0,0-3.27,2.75L74,113.47a3.32,3.32,0,0,0,2.71,3.83,3.43,3.43,0,0,0,.56,0H192a3.32,3.32,0,0,0,3.23-2.69L208.47,36A8.07,8.07,0,0,0,202,26.59,7.94,7.94,0,0,0,200.57,26.45Z"/><path class="cls-13" d="M200.7,26.45H85.42a5.06,5.06,0,0,0-5,4.22L67.18,117.35H188.86l14.69-87.46a2.91,2.91,0,0,0-2.31-3.39A3.29,3.29,0,0,0,200.7,26.45Z"/><path class="cls-12" d="M200.7,26.45H85.42a5.06,5.06,0,0,0-5,4.22L67.18,117.35H188.86l14.69-87.46a2.91,2.91,0,0,0-2.31-3.39A3.29,3.29,0,0,0,200.7,26.45Z"/><polygon class="cls-19" points="197.55 32.91 86.22 32.91 74.48 110.89 184.66 110.89 197.55 32.91"/><polygon class="cls-20" points="197.86 33.03 197.26 36.26 85.98 36.26 86.54 33.03 197.86 33.03"/><polygon class="cls-20" points="89.4 32.91 77.65 110.89 74.42 110.89 86.17 32.91 89.4 32.91"/><polygon class="cls-21" points="102.06 41.56 96.07 41.56 95.31 43.82 101.76 43.82 102.06 41.56"/><polygon class="cls-21" points="110.67 41.56 104.14 41.56 103.38 43.82 109.83 43.82 110.67 41.56"/><polygon class="cls-21" points="118.2 41.56 112.21 41.56 111.99 43.82 117.36 43.82 118.2 41.56"/><polygon class="cls-21" points="123.31 41.56 121.09 41.56 120.33 43.82 123.01 43.82 123.31 41.56"/><polygon class="cls-21" points="94.25 41.56 92.04 41.56 91.27 43.82 93.74 43.9 94.25 41.56"/><polygon class="cls-21" points="100.98 46.4 95 46.4 94.23 48.66 100.68 48.66 100.98 46.4"/><polygon class="cls-21" points="109.05 46.4 103.07 46.4 102.3 48.66 108.75 48.66 109.05 46.4"/><polygon class="cls-21" points="117.12 46.4 111.14 46.4 110.91 48.66 116.83 48.66 117.12 46.4"/><polygon class="cls-21" points="121.69 46.4 119.48 46.4 118.71 48.66 121.4 48.66 121.69 46.4"/><polygon class="cls-21" points="93.18 46.4 90.96 46.4 90.2 48.66 92.8 48.66 93.18 46.4"/><path class="cls-22" d="M14.83,116.81H137.66v11.3H19a7.37,7.37,0,0,1-7.37-7.36h0V120A3.23,3.23,0,0,1,14.83,116.81Z"/><path class="cls-14" d="M137.66,123.81v4.3H19a7.37,7.37,0,0,1-7.36-7.36V120a3.13,3.13,0,0,1,.33-1.4,7.39,7.39,0,0,0,7,5.19Z"/><polygon class="cls-14" points="190.4 113.58 190.4 116.81 67.28 116.81 67.72 113.58 190.4 113.58"/><path class="cls-18" d="M48.88,116.81H92.47a5.92,5.92,0,0,1-5.92,5.92H54.8a5.92,5.92,0,0,1-5.92-5.92Z"/><path class="cls-12" d="M48.88,116.81H92.47a5.92,5.92,0,0,1-5.92,5.92H54.8a5.92,5.92,0,0,1-5.92-5.92Z"/><polygon class="cls-20" points="197.5 32.91 184.61 110.89 74.45 110.89 195.99 32.91 197.5 32.91"/><line class="cls-23" x1="200.36" y1="110.89" x2="197.93" y2="112.51"/><rect class="cls-24" x="197.27" y="58.25" width="8.33" height="1.89" rx="0.95" transform="translate(111.95 249.12) rotate(-81.15)"/><rect class="cls-24" x="199.13" y="46.28" width="8.33" height="1.89" rx="0.95" transform="translate(125.35 240.83) rotate(-81.15)"/><rect class="cls-25" x="64.49" y="118.82" width="8.33" height="1.89" rx="0.95"/><path class="cls-13" d="M20.49,116.84H33.57A1.43,1.43,0,0,1,35,118.27h0a1.44,1.44,0,0,1-1.43,1.44H20.49a1.44,1.44,0,0,1-1.43-1.44h0A1.43,1.43,0,0,1,20.49,116.84Z"/><circle class="cls-13" cx="37.66" cy="118.27" r="1.43"/><path class="cls-26" d="M73.14,87.25l2-12.92a1.43,1.43,0,0,1,1.63-1.2h0A1.43,1.43,0,0,1,78,74.77L76,87.69a1.43,1.43,0,0,1-1.64,1.19h0A1.43,1.43,0,0,1,73.14,87.25Z"/><circle class="cls-26" cx="77.2" cy="70.5" r="1.43"/><rect class="cls-26" x="87.39" y="28.06" width="15.94" height="2.86" rx="1.43"/><circle class="cls-26" cx="105.99" cy="29.49" r="1.43"/><circle class="cls-27" cx="132.28" cy="29.64" r="1.61"/><rect class="cls-28" x="38.51" y="114.12" width="12.38" height="2.69"/><rect class="cls-28" x="19.83" y="114.12" width="12.38" height="2.69"/><rect class="cls-28" x="57.19" y="114.12" width="12.38" height="2.69"/><rect class="cls-28" x="75.87" y="114.12" width="12.38" height="2.69"/><rect class="cls-28" x="94.54" y="114.12" width="12.38" height="2.69"/><rect class="cls-28" x="113.23" y="114.12" width="12.38" height="2.69"/><rect class="cls-28" x="131.9" y="114.12" width="12.38" height="2.69"/><rect class="cls-28" x="169.41" y="114.12" width="12.38" height="2.69"/><rect class="cls-28" x="150.65" y="114.2" width="12.38" height="2.69"/><rect class="cls-12" x="38.51" y="114.12" width="12.38" height="2.69"/><rect class="cls-12" x="19.83" y="114.12" width="12.38" height="2.69"/><rect class="cls-12" x="57.19" y="114.12" width="12.38" height="2.69"/><rect class="cls-12" x="75.87" y="114.12" width="12.38" height="2.69"/><rect class="cls-12" x="94.54" y="114.12" width="12.38" height="2.69"/><rect class="cls-12" x="113.23" y="114.12" width="12.38" height="2.69"/><rect class="cls-12" x="131.9" y="114.12" width="12.38" height="2.69"/><rect class="cls-12" x="169.41" y="114.12" width="12.38" height="2.69"/><rect class="cls-12" x="150.65" y="114.2" width="12.38" height="2.69"/><polygon class="cls-12" points="197.49 32.91 86.17 32.91 74.43 110.89 184.61 110.89 197.49 32.91"/><path class="cls-8" d="M182.24,41.83H136a4.57,4.57,0,0,0-4.54,3.9l-4.49,29.81a4.58,4.58,0,0,0,3.86,5.22,3.82,3.82,0,0,0,.68,0h45.86A4.59,4.59,0,0,0,181.87,77l4.93-29.81A4.59,4.59,0,0,0,183,41.89,3.42,3.42,0,0,0,182.24,41.83Z"/><path class="cls-29" d="M186.71,47.17,181.79,77a4.59,4.59,0,0,1-4.53,3.84H131.4a4.59,4.59,0,0,1-4.49-3.61L182,41.83h.14a4.6,4.6,0,0,1,4.53,5.34Z"/><path class="cls-12" d="M14.83,116.81H137.66v11.3H19a7.37,7.37,0,0,1-7.37-7.36h0V120A3.23,3.23,0,0,1,14.83,116.81Z"/><path class="cls-18" d="M132,116.81h62.41a5.65,5.65,0,0,1,5.65,5.65h0a5.65,5.65,0,0,1-5.65,5.65H132a5.64,5.64,0,0,1-5.65-5.65h0A5.64,5.64,0,0,1,132,116.81Z"/><rect class="cls-25" x="185.29" y="121.51" width="8.33" height="1.89" rx="0.95"/><rect class="cls-25" x="173.18" y="121.51" width="8.33" height="1.89" rx="0.95"/><path class="cls-12" d="M132,116.81h62.41a5.65,5.65,0,0,1,5.65,5.65h0a5.65,5.65,0,0,1-5.65,5.65H132a5.64,5.64,0,0,1-5.65-5.65h0A5.64,5.64,0,0,1,132,116.81Z"/><polygon class="cls-15" points="142.8 67.02 136.81 67.02 136.05 69.29 142.5 69.29 142.8 67.02"/><polygon class="cls-15" points="151.41 67.02 144.89 67.02 144.13 69.29 150.57 69.29 151.41 67.02"/><polygon class="cls-15" points="158.94 67.02 152.96 67.02 152.74 69.29 158.11 69.29 158.94 67.02"/><polygon class="cls-15" points="164.05 67.02 161.84 67.02 161.08 69.29 163.76 69.29 164.05 67.02"/><polygon class="cls-15" points="135 67.02 132.78 67.02 132.01 69.29 134.48 69.36 135 67.02"/><polygon class="cls-15" points="141.72 71.87 135.74 71.87 134.97 74.14 141.43 74.14 141.72 71.87"/><polygon class="cls-15" points="149.79 71.87 143.81 71.87 143.05 74.14 149.5 74.14 149.79 71.87"/><polygon class="cls-15" points="157.86 71.87 151.88 71.87 151.66 74.14 157.57 74.14 157.86 71.87"/><polygon class="cls-15" points="162.44 71.87 160.22 71.87 159.46 74.14 162.14 74.14 162.44 71.87"/><polygon class="cls-15" points="133.92 71.87 131.7 71.87 130.94 74.14 133.54 74.14 133.92 71.87"/><path class="cls-30" d="M182.24,41.83H136a4.57,4.57,0,0,0-4.54,3.9l-4.49,29.81a4.58,4.58,0,0,0,3.86,5.22,3.82,3.82,0,0,0,.68,0h45.86A4.59,4.59,0,0,0,181.87,77l4.93-29.81A4.59,4.59,0,0,0,183,41.89,3.42,3.42,0,0,0,182.24,41.83Z"/></g></g></svg>